<svg width="64" height="64" viewBox="0 0 64 64" fill="none" xmlns="http://www.w3.org/2000/svg">
  <path d="M10 52H55" stroke="#F7F2EA" stroke-opacity="0.3" stroke-width="3.2" stroke-linecap="round"/>
  <path d="M10 52V10" stroke="#F7F2EA" stroke-opacity="0.22" stroke-width="3.2" stroke-linecap="round"/>

  <g stroke-linejoin="round">
    <path d="M15.4 43.9L21.6 48.9L26.1 43.3L19.9 38.3Z" fill="#A9C79D" stroke="#F4FAEF" stroke-opacity="0.72" stroke-width="1.05"/>
    <path d="M16.9 42L21.3 45.6" stroke="#E9F4E1" stroke-opacity="0.52" stroke-width="0.95" stroke-linecap="round"/>

    <path d="M20.9 37.1L27.1 42.1L32.4 35.6L26.1 30.5Z" fill="#9DBD91" stroke="#F4FAEF" stroke-opacity="0.72" stroke-width="1.05"/>
    <path d="M22.6 35.2L27.6 39.2" stroke="#E9F4E1" stroke-opacity="0.5" stroke-width="0.95" stroke-linecap="round"/>

    <path d="M27.1 29.3L33.4 34.3L38.6 27.8L32.4 22.8Z" fill="#92B687" stroke="#F4FAEF" stroke-opacity="0.72" stroke-width="1.05"/>
    <path d="M28.8 27.5L33.8 31.4" stroke="#E9F4E1" stroke-opacity="0.46" stroke-width="0.95" stroke-linecap="round"/>

    <path d="M33.4 21.6L39.6 26.6L45.6 19.1L39.4 14.1Z" fill="#86AD7D" stroke="#F4FAEF" stroke-opacity="0.72" stroke-width="1.05"/>
    <path d="M35.2 19.7L40.2 23.8" stroke="#E9F4E1" stroke-opacity="0.44" stroke-width="0.95" stroke-linecap="round"/>

    <path d="M21.1 38.8L26 42.8" stroke="#DD7A48" stroke-width="1.65" stroke-linecap="round"/>
    <path d="M27.4 31L32.3 35" stroke="#DD7A48" stroke-width="1.65" stroke-linecap="round"/>
    <path d="M33.6 23.3L38.6 27.3" stroke="#DD7A48" stroke-width="1.65" stroke-linecap="round"/>
  </g>

  <path d="M38 18.5C45.5 13.2 52.6 12 57.6 15.2C51.3 20 44 21.4 38 18.5Z" fill="#6FA06D"/>
  <path d="M34.6 23.8C41.8 21.8 48.1 23.3 51.9 28.6C45.4 29.4 38.8 27.8 34.6 23.8Z" fill="#7FBA80"/>
  <path d="M30.1 28.4C27.2 21.6 27.1 15.7 30.8 11C34.2 15.8 34 22 31.6 27.2L30.1 28.4Z" fill="#5D8C61"/>
</svg>
